<svg xmlns="http://www.w3.org/2000/svg" style="height: 0; width: 0; position: absolute;"><symbol id="icon-Linkedin,-Circle" viewBox="0 0 24 24"><title>Linkedin, Circle</title><g class="nc-icon-wrapper"><g fill="none" stroke="none"><path d="M0 0h24v24H0z" stroke="none" fill="none"></path><path stroke="currentColor" stroke-linecap="round" stroke-linejoin="round" d="M8.649 10.574v4.909" fill="none"></path><path stroke="currentColor" stroke-linecap="round" stroke-linejoin="round" d="M11.92 15.483v-2.864a2.044 2.044 0 1 1 4.09 0v2.864" fill="none"></path><path stroke="currentColor" stroke-linecap="round" stroke-linejoin="round" d="M8.647 7.608a.205.205 0 1 0 .206.205.206.206 0 0 0-.206-.205" fill="none"></path><path stroke="currentColor" stroke-linecap="round" stroke-linejoin="round" d="M19.071 4.929c3.905 3.905 3.905 10.237 0 14.142-3.905 3.905-10.237 3.905-14.142 0-3.905-3.905-3.905-10.237 0-14.142 3.905-3.905 10.237-3.905 14.142 0" fill="none"></path></g></g></symbol></svg>