<svg width="24" height="24" viewBox="0 0 24 24" fill="none" xmlns="http://www.w3.org/2000/svg">
<path fill-rule="evenodd" clip-rule="evenodd" d="M7.5 3H16.504C17.0944 3 17.6791 3.11629 18.2245 3.34224C18.77 3.56818 19.2657 3.89936 19.6832 4.31685C20.1006 4.73434 20.4318 5.22998 20.6578 5.77546C20.8837 6.32094 21 6.90558 21 7.496V16.505C20.9997 17.6972 20.5259 18.8406 19.6828 19.6835C18.8397 20.5265 17.6962 21 16.504 21H7.496C6.30359 21 5.16001 20.5263 4.31685 19.6832C3.47368 18.84 3 17.6964 3 16.504V7.5C3 6.30653 3.47411 5.16193 4.31802 4.31802C5.16193 3.47411 6.30653 3 7.5 3Z" stroke="black" stroke-linecap="round" stroke-linejoin="round"/>
<path d="M8 11V16.4" stroke="black" stroke-linecap="round" stroke-linejoin="round"/>
<path d="M11.7188 16.5001V13.3501C11.7188 12.7534 11.9558 12.1811 12.3778 11.7591C12.7997 11.3371 13.372 11.1001 13.9688 11.1001C14.5655 11.1001 15.1378 11.3371 15.5597 11.7591C15.9817 12.1811 16.2188 12.7534 16.2188 13.3501V16.5001" stroke="black" stroke-linecap="round" stroke-linejoin="round"/>
<path d="M7.99778 8C7.89898 8.00044 7.80253 8.03014 7.7206 8.08535C7.63867 8.14056 7.57493 8.2188 7.53743 8.3102C7.49992 8.4016 7.49034 8.50206 7.50988 8.5989C7.52942 8.69575 7.57722 8.78463 7.64723 8.85434C7.71725 8.92404 7.80634 8.97144 7.90327 8.99055C8.0002 9.00967 8.10062 8.99964 8.19185 8.96173C8.28308 8.92382 8.36104 8.85973 8.41589 8.77756C8.47073 8.69538 8.5 8.5988 8.5 8.5C8.5 8.43416 8.48699 8.36896 8.46173 8.30815C8.43646 8.24734 8.39943 8.19212 8.35277 8.14566C8.3061 8.09921 8.25072 8.06242 8.1898 8.03743C8.12888 8.01243 8.06363 7.99971 7.99778 8Z" fill="black"/>
</svg>
