<svg xmlns="http://www.w3.org/2000/svg" height="24" width="24" viewBox="0 0 24 24"><title>Linkedin, Circle</title><g fill="#c6c8cd" class="nc-icon-wrapper"><g fill="none"><path d="M0 0h24v24H0z"></path><path stroke="#c6c8cd" stroke-linecap="round" stroke-linejoin="round" stroke-width="1.5" d="M8.649 10.574v4.909"></path><path stroke="#c6c8cd" stroke-linecap="round" stroke-linejoin="round" stroke-width="1.5" d="M11.92 15.483v-2.864a2.044 2.044 0 1 1 4.09 0v2.864"></path><path stroke="#c6c8cd" stroke-linecap="round" stroke-linejoin="round" stroke-width="1.5" d="M8.647 7.608a.205.205 0 1 0 .206.205.206.206 0 0 0-.206-.205"></path><path stroke="#c6c8cd" stroke-linecap="round" stroke-linejoin="round" stroke-width="1.5" d="M19.071 4.929c3.905 3.905 3.905 10.237 0 14.142-3.905 3.905-10.237 3.905-14.142 0-3.905-3.905-3.905-10.237 0-14.142 3.905-3.905 10.237-3.905 14.142 0"></path></g></g></svg>