<svg width="95" height="31" viewBox="0 0 95 31" fill="none" xmlns="http://www.w3.org/2000/svg">
<g clip-path="url(#clip0_17_461)">
<path d="M44.6881 17.1257V6.8462C44.6881 6.14426 45.0942 5.74316 45.8045 5.74316H47.6052C48.3154 5.74316 48.7212 6.14426 48.7212 6.8462V16.9753C48.7212 20.9868 46.4133 23.5942 42.1265 23.5942C39.6404 23.5942 37.5774 22.6227 36.2668 20.8864C35.8331 20.3118 36.0386 19.7332 36.6729 19.3822L37.9665 18.6801C38.575 18.3542 39.057 18.5296 39.539 19.1064C40.1734 19.8586 40.985 20.2596 41.9996 20.2596C43.7497 20.2596 44.6881 19.0311 44.6881 17.1257ZM51.6143 17.6522V11.4093C51.6143 10.7074 52.0201 10.3062 52.7304 10.3062H54.3538C55.0641 10.3062 55.4699 10.7074 55.4699 11.4093V17.8778C55.4699 19.7081 56.5352 20.6106 57.9812 20.6106C59.4271 20.6106 60.4921 19.7081 60.4921 17.8778V11.4093C60.4921 10.7074 60.8979 10.3062 61.6081 10.3062H63.2316C63.9422 10.3062 64.3477 10.7074 64.3477 11.4093V17.6522C64.3477 21.5884 61.8874 23.5942 57.9812 23.5942C54.0749 23.5942 51.6143 21.5884 51.6143 17.6522ZM70.8423 14.418V22.1902C70.8423 22.8921 70.4365 23.2933 69.7259 23.2933H68.1027C67.3925 23.2933 66.9867 22.8921 66.9867 22.1902V11.4093C66.9867 10.7074 67.3925 10.3062 68.1027 10.3062H69.7259C70.4365 10.3062 70.8423 10.7074 70.8423 11.4093V11.7603C71.7807 10.8076 73.3532 10.0053 75.1543 10.0053C77.8938 10.0053 79.7456 11.7102 79.7456 14.9695V22.1902C79.7456 22.8921 79.3398 23.2933 78.6292 23.2933H77.006C76.2958 23.2933 75.89 22.8921 75.89 22.1902V15.3707C75.89 13.8413 75.205 12.9889 73.81 12.9889C72.6178 12.9889 71.4763 13.6658 70.8423 14.418ZM94.8642 16.9501C94.8642 17.6522 94.4332 18.0282 93.723 18.0282H85.5554C85.8341 19.6579 87.0263 20.6106 88.8528 20.6106C89.7151 20.6106 90.3998 20.3349 90.9832 19.8586C91.5161 19.4072 91.9981 19.2818 92.556 19.6829L93.3931 20.2596C94.0019 20.6859 94.1337 21.2926 93.5706 21.8141C92.3132 22.9789 90.6536 23.5942 88.7004 23.5942C84.3884 23.5942 81.7248 20.761 81.7248 16.7998C81.7248 12.8384 84.3632 10.0053 88.3201 10.0053C92.2264 10.0053 94.8642 12.8134 94.8642 16.8499V16.9501ZM85.5299 15.4459H91.0594C90.9073 13.9166 89.8168 12.9889 88.3201 12.9889C86.7725 12.9889 85.7579 13.8663 85.5299 15.4459Z" fill="black"/>
<path d="M21.1021 13.2279C21.5715 15.8591 20.0959 17.7016 17.3441 18.1812C15.2418 18.5476 13.4742 17.9261 12.6428 16.4711C12.5428 16.296 12.5233 16.087 12.5889 15.8967C12.6545 15.7063 12.7991 15.552 12.9866 15.474L14.2172 14.9615C14.51 14.8396 14.8483 14.9238 15.0482 15.1679C15.4158 15.6167 16.0131 15.8675 16.7988 15.7306C17.9205 15.5351 18.5296 14.7125 18.3266 13.5743L17.5829 9.40553L13.2749 10.1563C12.887 10.2239 12.5171 9.96791 12.4487 9.58451L12.2719 8.59313C12.2035 8.20973 12.4625 7.84409 12.8504 7.77647L19.2077 6.66848C19.5957 6.60089 19.9656 6.85691 20.034 7.24031L21.1021 13.2279ZM26.4925 4.84448C25.9825 1.98557 23.2243 0.0766366 20.332 0.580734L8.88472 2.57582C7.49575 2.81789 6.26096 3.59546 5.45197 4.73738L1.07699 10.9132C0.268021 12.0551 -0.0488639 13.4679 0.196046 14.8408L2.21451 26.1555C2.72451 29.0144 5.48269 30.9233 8.37509 30.4193L19.8223 28.4242C21.2113 28.1821 22.4461 27.4046 23.255 26.2626L27.63 20.0868C28.439 18.9449 28.7559 17.532 28.511 16.1592L26.4925 4.84448ZM26.4293 16.5978C26.7353 18.3132 25.5765 19.9489 23.8411 20.2514L12.3194 22.2594C10.5839 22.5619 8.92903 21.4165 8.62303 19.7012L6.59143 8.31293C6.28545 6.59759 7.44424 4.96184 9.17965 4.65938L20.7014 2.65133C22.4368 2.34888 24.0917 3.49423 24.3977 5.20958L26.4293 16.5978Z" fill="black"/>
</g>
<defs>
<clipPath id="clip0_17_461">
<rect width="95" height="30" fill="white" transform="translate(0 0.5)"/>
</clipPath>
</defs>
</svg>
