<svg width="82" height="31" viewBox="0 0 82 31" fill="none" xmlns="http://www.w3.org/2000/svg">
<g clip-path="url(#clip0_156_159)">
<path d="M15.0378 30.1648C12.0048 30.1648 9.35379 29.5255 7.0848 28.2467C4.81581 26.9912 3.06776 25.2591 1.84066 23.0503C0.613553 20.8183 0 18.319 0 15.5522C0 12.7855 0.613553 10.2861 1.84066 8.05409C3.06776 5.82209 4.81581 4.06671 7.0848 2.78796C9.37694 1.48596 12.028 0.834961 15.0378 0.834961H24.7968V3.10184H15.0378C12.4447 3.10184 10.1989 3.64821 8.30033 4.74096C6.42494 5.81046 4.98946 7.29846 3.99388 9.20496C2.99831 11.0882 2.50052 13.2156 2.50052 15.5871C2.50052 17.9586 2.98673 20.0743 3.95915 21.9343C4.95473 23.7943 6.40179 25.2591 8.30033 26.3286C10.1989 27.3748 12.4447 27.898 15.0378 27.898H24.7968V30.1648H15.0378ZM12.0511 20.3301H17.9551C18.6728 20.3301 19.2054 20.1557 19.5527 19.807C19.9231 19.435 20.1083 19.0281 20.1083 18.5863C20.1083 18.0981 19.9463 17.7028 19.6221 17.4006C19.3211 17.0751 18.777 16.831 17.9898 16.6682L16.0103 16.2497C14.4822 15.9242 13.4056 15.4476 12.7804 14.8198C12.1553 14.1688 11.8427 13.3086 11.8427 12.2391C11.8427 11.1928 12.2132 10.3093 12.9541 9.58859C13.7181 8.84459 14.8526 8.47259 16.3576 8.47259H21.7753V10.5651H16.5312C15.7672 10.5651 15.1999 10.7395 14.8295 11.0882C14.4822 11.4137 14.3085 11.7857 14.3085 12.2042C14.3085 12.6692 14.4706 13.0528 14.7947 13.3551C15.1189 13.6341 15.6861 13.855 16.4965 14.0177L18.5108 14.4362C19.9231 14.7385 20.965 15.2267 21.6364 15.901C22.331 16.5752 22.6783 17.4703 22.6783 18.5863C22.6783 19.6791 22.2847 20.6091 21.4975 21.3763C20.7103 22.1203 19.5295 22.4923 17.9551 22.4923H12.0511V20.3301Z" fill="black"/>
<path d="M22.8999 0.834961H31.8254V3.10184H22.8999V0.834961ZM22.8999 27.898H31.8254V30.1648H22.8999V27.898ZM26.095 8.47259H28.6303V22.4923H26.095V8.47259Z" fill="black"/>
<path d="M29.9243 0.834961H44.0592V3.10184H29.9243V0.834961ZM29.9243 27.898H44.0592V30.1648H29.9243V27.898ZM33.1194 8.47259H35.6547V20.3301H42.288V22.4923H33.1194V8.47259Z" fill="black"/>
<path d="M40.3745 0.834961H57.4267V3.10184H40.3745V0.834961ZM40.3745 27.898H57.4267V30.1648H40.3745V27.898ZM42.0415 8.47259H44.8199L48.9874 19.9813L53.0855 8.47259H55.7596L50.4808 22.4923H47.3204L42.0415 8.47259Z" fill="black"/>
<path d="M55.5049 27.898H66.6877C69.2809 27.898 71.5151 27.3632 73.3905 26.2937C75.2891 25.201 76.7361 23.713 77.7317 21.8297C78.7273 19.9232 79.2251 17.7842 79.2251 15.4127C79.2251 13.0412 78.7273 10.9255 77.7317 9.06546C76.7593 7.20546 75.3238 5.75234 73.4253 4.70609C71.5267 3.63659 69.2809 3.10184 66.6877 3.10184H55.5049V0.834961H66.6877C69.7208 0.834961 72.3718 1.47434 74.6408 2.75309C76.9098 4.00859 78.6578 5.75234 79.8849 7.98434C81.112 10.1931 81.7256 12.6808 81.7256 15.4476C81.7256 18.2143 81.112 20.7137 79.8849 22.9457C78.6578 25.1777 76.8982 26.9331 74.6061 28.2118C72.3371 29.5138 69.6976 30.1648 66.6877 30.1648H55.5049V27.898ZM58.7 8.47259H65.4028C66.6993 8.47259 67.7644 8.83296 68.5979 9.55371C69.4545 10.2745 69.8829 11.2393 69.8829 12.4483C69.8829 13.6573 69.4429 14.6222 68.5631 15.343C67.6833 16.0405 66.6183 16.3892 65.368 16.3892H62.8328L63.8747 15.9358C64.7082 16.7728 65.1249 17.1913 65.1249 17.1913L65.4028 17.4703L70.2649 22.4923H66.9656L61.2005 16.3543V22.4923H58.7V8.47259ZM64.986 14.3665C65.7037 14.3665 66.2594 14.2037 66.653 13.8782C67.0466 13.5295 67.2434 13.0645 67.2434 12.4832C67.2434 11.902 67.0466 11.437 66.653 11.0882C66.2594 10.7395 65.7037 10.5651 64.986 10.5651H61.2005V14.3665H64.986Z" fill="black"/>
</g>
<defs>
<clipPath id="clip0_156_159">
<rect width="82" height="31" fill="white"/>
</clipPath>
</defs>
</svg>
