<svg width="242" height="382" viewBox="0 0 242 382" fill="none" xmlns="http://www.w3.org/2000/svg">
<path d="M9.50544 186.61C31.5037 179.753 54.1523 176.107 77.2645 172.53C76.6867 169.199 76.1264 165.964 75.5625 162.73C75.4241 161.937 75.0678 161.121 75.175 160.367C75.2753 159.665 75.725 158.679 76.2682 158.475C76.7836 158.281 77.7799 158.782 78.2677 159.274C78.8004 159.81 79.1083 160.65 79.3194 161.412C80.5509 165.815 81.7236 170.233 82.8791 174.495C79.4059 177.387 75.5798 177.432 71.5288 177.595C72.3418 181.31 73.1962 184.52 73.722 187.786C74.964 195.514 76.0606 203.263 77.1884 211.009C77.7349 214.773 77.7073 214.78 81.4088 215.762C89.9847 218.035 98.2768 216.928 106.448 213.811C120.126 208.594 132.397 200.907 144.221 192.432C146.262 190.969 148.334 189.543 150.697 188.322C150.161 191.076 149.815 193.802 147.255 195.604C135.071 204.17 122.513 212.033 108.423 217.198C99.0552 220.629 89.6664 221.712 80.0597 218.315C79.7518 218.204 79.3816 218.263 78.6725 218.218C78.6725 219.128 78.5686 219.996 78.6897 220.833C80.2257 231.658 81.5783 242.517 83.4291 253.289C84.5984 260.094 86.8573 266.639 90.1472 272.8C91.6451 275.603 93.6274 277 96.9069 277.225C103.708 277.692 110.222 276.505 116.639 274.537C123.676 272.375 130.684 270.119 137.679 267.826C138.956 267.407 140.104 266.598 141.308 265.965C141.706 265.754 142.076 265.373 142.491 265.325C147.615 264.754 152.043 262.087 156.855 260.589C160.034 259.599 163.171 258.468 166.866 258.534V263.169C165.008 263.377 163.272 263.308 161.715 263.799C157.557 265.103 153.475 266.65 149.106 268.193C149.773 269.268 150.237 270.033 150.718 270.784C153.523 275.177 155.72 279.851 157.176 284.863C163.832 307.747 169.862 330.797 175.338 353.989C176.317 358.133 177.421 362.257 178.175 366.443C179.05 371.293 179.604 376.202 179.725 381.297C179.327 380.716 178.874 380.166 178.538 379.55C175.878 374.669 174.228 369.476 172.875 364.063C166.344 337.937 159.594 311.864 152.721 285.825C151.645 281.753 149.624 277.917 147.874 274.049C147.231 272.631 146.099 271.434 145.1 270.005C141.37 271.285 137.918 272.499 134.445 273.658C124.727 276.903 115.006 280.238 104.767 281.359C101.037 281.767 97.1871 281.435 93.4233 281.086C90.1196 280.778 88.0993 278.311 86.802 275.564C84.7437 271.209 82.8964 266.74 81.2324 262.222C78.6621 255.237 78.2608 247.827 77.3025 240.528C76.071 231.17 74.6492 221.837 73.383 212.483C72.3175 204.612 71.3835 196.722 70.325 188.851C69.9894 186.343 69.4601 183.863 68.9931 181.372C68.3842 178.134 68.2839 178.01 64.911 178.567C59.8015 179.414 54.7127 180.376 49.6101 181.286C35.0807 183.877 20.8626 187.706 6.8002 192.141C5.70357 192.487 4.60002 192.816 3.48264 193.086C2.13347 193.411 0.718599 193.155 0.189313 191.896C-0.18776 191 0.0613004 189.696 0.389942 188.692C0.659775 187.872 1.40009 187.167 2.03661 186.509C14.3901 173.782 26.6813 160.996 39.1662 148.401C43.0477 144.485 47.4549 141.095 51.6269 137.469C52.4018 136.795 53.1906 136.141 53.9136 135.528C53.0661 131.218 52.3015 127.049 51.4228 122.902C48.9874 111.389 47.3581 99.7618 46.9672 88.0033C46.7665 81.9217 46.8772 75.7952 47.3892 69.7378C48.2575 59.4841 52.5748 50.5105 58.4558 42.1872C68.8063 27.5367 82.2979 16.7918 98.4532 9.10508C111.851 2.72943 125.997 0.404714 140.654 0.0483969C151.769 -0.221435 162.756 0.608821 173.567 3.25179C186.342 6.37562 198.381 11.1357 208.483 19.8569C216.045 26.3847 222.161 34.1061 227.267 42.7061C235.435 56.4572 239.942 71.163 240.534 87.2181C240.921 97.7346 240.534 108.116 239.126 118.55C237.389 131.439 236.528 144.443 234.85 157.343C232.764 173.388 232.397 189.481 232.594 205.616C232.712 215.406 232.432 225.213 232.968 234.979C233.504 244.741 234.791 254.466 235.836 264.197C236.818 273.347 237.815 282.501 239.008 291.626C239.482 295.266 240.216 298.926 241.343 302.413C242.423 305.755 241.25 307.892 238.52 310.1C238.078 308.38 237.69 306.889 237.31 305.398C234.047 292.522 232.242 279.442 231.308 266.196C230.612 256.323 229.363 246.492 228.416 236.636C228.142 233.775 227.928 230.893 227.914 228.022C227.859 215.119 227.959 202.219 227.855 189.315C227.779 179.615 228.796 170.008 229.886 160.398C230.64 153.766 231.231 147.114 231.968 140.479C232.871 132.356 233.639 124.213 234.843 116.132C236.417 105.584 236.483 95.0501 235.76 84.4367C234.269 62.5734 225.278 44.166 210.579 28.2424C199.976 16.7538 186.356 11.0458 171.554 7.45841C160.248 4.71858 148.773 4.25502 137.23 4.63555C119.324 5.22365 102.85 10.3366 87.7637 20.099C74.9156 28.4119 64.7449 39.2017 57.2727 52.465C53.194 59.6986 51.4747 67.6967 51.3225 76.0166C51.0458 91.2828 52.6094 106.362 55.7367 121.297C56.349 124.227 56.8264 127.184 57.456 130.111C57.7674 131.557 58.2171 132.882 59.5144 133.958C61.0711 135.245 60.9742 136.635 59.3656 137.604C50.385 143.021 43.2068 150.539 35.8694 157.831C27.7883 165.871 19.9874 174.194 12.0931 182.42C11.0206 183.538 10.1039 184.8 9.11453 185.997C9.24253 186.208 9.37398 186.419 9.50198 186.631L9.50544 186.61Z" fill="white"/>
<path d="M106.42 89.9788C106.8 86.4813 106.977 82.548 107.735 78.7323C108.191 76.4353 109.253 74.114 110.575 72.1664C112.636 69.1256 115.999 68.4856 119.071 70.5336C121.039 71.8447 122.81 73.6124 124.27 75.4874C128.2 80.5381 130.688 86.3879 132.815 92.3658C138.388 108.023 141.464 124.113 140.692 140.797C140.564 143.534 140 146.277 139.353 148.951C138.983 150.48 138.229 151.999 137.326 153.296C134.967 156.693 131.251 157.44 128.055 154.818C125.786 152.957 123.786 150.608 122.167 148.148C117.954 141.742 115.273 134.591 113.363 127.226C111.578 120.335 110.391 113.285 108.89 106.317C108.458 104.311 107.662 102.37 107.382 100.353C106.922 97.0601 106.749 93.7253 106.42 89.9788ZM136.43 133.152C135.942 121.819 133.746 110.794 130.449 99.973C128.366 93.1407 125.938 86.4294 122.063 80.3755C120.842 78.4659 119.313 76.674 117.625 75.1622C115.933 73.6436 114.415 74.0448 113.526 76.1516C112.733 78.037 112.045 80.0746 111.875 82.0914C111.529 86.2011 111.554 90.342 111.45 94.4725C111.374 97.5479 110.914 100.689 111.36 103.695C113.259 116.485 116.508 128.931 122.26 140.579C123.824 143.748 125.917 146.678 127.968 149.574C129.01 151.04 130.438 152.625 132.521 152.037C134.41 151.504 134.742 149.498 135.174 147.868C136.458 143.046 136.645 138.113 136.427 133.155L136.43 133.152Z" fill="white"/>
</svg>
