<svg width="96" height="23" viewBox="0 0 96 23" fill="none" xmlns="http://www.w3.org/2000/svg">
<path d="M6.22436 23C1.45842 23 0.735586 22.4495 0.980031 21.3918C1.15849 20.642 5.05762 6.22746 5.1461 5.89719C5.53451 4.35443 7.16765 4.72933 7.23513 4.73975C7.27862 4.75165 7.31312 4.79479 7.30112 4.83942C7.15715 6.07423 4.86866 18.2512 4.84617 18.4044C4.65721 19.6065 4.84617 19.727 6.34583 19.727C13.7557 19.727 16.4446 14.6479 17.1764 10.5924C18.4436 3.56147 11.4897 1.45635 1.79135 2.31625C1.70287 2.32667 1.05801 2.3594 0.780576 2.22699C0.414657 2.05144 0.102727 1.61108 0.0247445 1.36858C-0.00824816 1.27932 -0.00824816 1.19154 0.0247445 1.13649C0.0472395 1.10377 0.0697344 1.07104 0.102727 1.05913C3.23553 0.508678 7.59056 -0.229231 10.4009 0.0683128C21.0426 1.18113 21.0426 7.82527 20.4202 11.1875C20.0768 13.1379 18.2772 23 6.22436 23ZM44.3713 18.6588C43.683 20.9841 41.5835 22.5924 39.139 22.6593C37.0845 22.7694 35.0284 21.612 34.1286 19.8267C33.7732 19.1542 33.5738 18.4268 33.4958 17.5669C33.1853 17.7112 32.8629 17.8436 32.5405 17.9418C32.1176 19.1215 31.3857 20.212 30.3735 20.9618C28.208 22.5596 25.2746 23.0223 22.6427 21.5896C19.3989 19.3744 19.7993 14.9113 22.0653 12.2884C24.3193 9.66558 28.4629 9.22522 30.5414 10.5151C31.9511 11.4181 32.7069 12.9728 32.9064 14.5914C33.2063 14.3831 33.4733 14.1183 33.7852 13.7657C34.0731 13.4236 34.64 12.586 34.64 12.586C34.9729 12.0801 35.3838 11.6056 35.8397 11.1979C36.795 10.3708 38.0053 9.96312 39.2275 9.96312C40.2833 9.96312 41.36 10.2726 42.2943 10.9004C42.5942 11.0983 42.6707 11.2083 42.5717 11.375C42.4383 11.616 42.2943 11.8376 42.1158 12.0459C41.7829 12.4431 41.438 12.3003 41.2055 12.2007C41.1711 12.1902 41.1381 12.1679 41.1051 12.156C40.0613 11.793 39.205 11.8704 38.3172 12.3985C36.3946 13.556 36.1067 15.8039 36.4621 17.5237C36.828 19.2762 37.8058 19.8713 38.5721 20.0588C39.9713 20.4114 41.8489 19.6616 43.0381 18.2735C43.3936 17.854 43.9379 18.1292 44.3264 18.4387C44.3488 18.4491 44.3593 18.4595 44.3713 18.4714C44.4268 18.5368 44.3713 18.6469 44.3713 18.6588ZM29.7631 12.7511C28.3294 10.9882 25.7305 11.5832 24.2638 13.2153C22.7987 14.8562 22.7762 17.546 24.3748 18.6812C25.8745 19.7389 28.2634 19.1766 29.4407 17.4791C30.2625 16.2889 31.0078 14.2835 29.7631 12.7511ZM65.6216 16.454C65.4221 18.1738 64.5328 19.9145 63.1112 20.9722C60.9456 22.57 58.0123 23.0342 55.3804 21.6015C55.046 21.3695 54.746 21.1165 54.4911 20.8398C54.0472 21.237 53.5238 21.6343 52.9464 21.975C51.1813 23.0342 48.7144 22.7575 47.1922 21.3471C46.2264 20.4872 45.76 19.0665 45.937 17.6234C46.093 16.3439 47.2477 11.9358 48.326 7.99041C47.2702 8.02463 46.3479 7.99041 45.838 7.74791C45.0147 7.35218 45.2157 5.99687 45.2936 5.61006C45.3041 5.55502 45.3596 5.51187 45.4151 5.51187C45.8155 5.51187 47.3257 5.49997 49.0038 5.48956C49.7026 2.95448 50.259 1.04872 50.259 1.04872C50.4585 0.376271 51.2023 0.0117793 51.8802 0.0117793C52.0136 0.0117793 52.1366 0.0236821 52.2581 0.0564119C52.3031 0.0683136 52.3241 0.111457 52.3136 0.166502C52.1366 1.25849 51.7917 3.24161 51.3808 5.48956C52.2911 5.48956 53.1129 5.49997 53.6693 5.51187C55.6233 5.55502 58.2013 5.66511 58.7231 5.68742C58.7786 5.68742 58.8341 5.73205 58.8461 5.7871C58.9016 6.0296 58.9451 6.6351 58.2462 7.03232C57.6464 7.36259 53.2913 7.67204 51.2923 7.80444C51.1813 7.81486 51.0808 7.81486 50.9699 7.82528C50.1361 12.3881 49.2483 17.1161 49.2033 17.3258C48.9813 18.4267 49.6817 19.0992 50.3025 19.2316C51.4468 19.4741 52.3811 18.9891 53.1579 18.2839C52.7245 16.2234 53.4023 13.9086 54.791 12.2884C57.0465 9.66558 61.1901 9.22522 63.2671 10.5151C65.2212 11.7826 65.911 14.273 65.6216 16.454ZM62.5113 12.7511C61.0791 10.9882 58.4787 11.5832 57.012 13.2153C55.5468 14.8562 55.5244 17.546 57.123 18.6812C58.6227 19.7389 61.0116 19.1766 62.1889 17.4791C63.0107 16.2889 63.756 14.2835 62.5113 12.7511ZM78.6417 7.23019C79.285 7.64972 80.0964 7.45037 80.6182 7.06505C80.9737 6.80024 81.2076 6.37177 81.2631 5.9076C81.3291 5.4241 81.2076 4.73975 80.6632 4.38716C80.4518 4.25475 80.2073 4.19971 79.9524 4.19971C79.552 4.19971 79.1411 4.34401 78.8186 4.53147C78.7182 4.59693 78.6417 4.66238 78.5637 4.75165C78.5187 4.80669 78.4752 4.87215 78.4407 4.9391C77.9863 5.73206 77.8859 6.71246 78.6417 7.23019ZM93.5709 10.5374C92.0937 9.61054 89.5502 9.57781 87.3952 10.5924C87.8616 8.04546 88.8724 1.05913 89.0164 0.178403C89.0284 0.144186 89.0164 0.123357 89.0059 0.101042C88.9939 0.0787258 88.9729 0.0683128 88.9504 0.0683128C88.8274 0.045997 88.7059 0.0236802 88.5725 0.0236802C87.8946 0.0236802 87.1508 0.386685 86.9498 1.05913C86.9498 1.05913 82.9952 16.8959 82.8617 17.6338C81.9514 19.0337 80.8522 19.5738 79.6525 19.2093C78.6522 18.9013 78.7077 18.1411 78.7407 17.7662C78.7962 17.1711 79.8294 11.2976 80.0184 9.98544C80.0304 9.89767 79.9749 9.8203 79.8849 9.79799C79.675 9.76526 79.4515 9.74294 79.2296 9.74294C78.4962 9.74294 77.7419 10.0078 77.2965 11.1102C77.286 11.1533 75.9858 15.6611 75.7413 16.6311C75.7083 16.7516 75.6858 16.8736 75.6529 16.9941C74.6976 18.4268 73.2204 19.6839 71.0879 19.2316C70.4655 19.0992 69.7772 18.6469 69.9871 17.3258C70.0426 16.9718 71.9982 5.75437 72.565 2.17195C72.5755 2.1169 72.553 2.07376 72.5096 2.06186C72.3866 2.02913 72.2531 2.01871 72.1316 2.01871C71.4538 2.01871 70.7205 2.38171 70.509 3.05416C70.509 3.05416 67.3882 14.4159 66.7208 17.6234C66.4209 19.0337 66.6324 20.4114 67.8996 21.5242C69.0768 22.57 71.3428 22.9018 73.2204 22.1193C74.3092 21.667 75.2195 20.9291 75.8523 20.2894C76.6756 21.9199 78.6417 22.9792 80.4518 22.5492C81.851 22.2175 82.9172 21.2147 83.6176 20.3772C83.895 20.7744 84.2174 21.127 84.5624 21.4022C86.173 22.6697 88.4495 22.9018 90.516 22.2948C91.5598 22.0642 92.5601 21.612 93.4269 20.9722C94.8486 19.9041 95.7484 18.1738 95.9373 16.454C96.2268 14.273 95.5264 11.7826 93.5709 10.5374ZM92.5496 17.7335C91.3828 19.4295 88.7059 20.0692 87.2063 19.0114C85.5956 17.8763 85.9061 15.0987 87.3727 13.4682C88.8394 11.8257 91.4383 11.2426 92.872 13.0055C94.1152 14.526 93.3714 16.5314 92.5496 17.7335Z" fill="black"/>
</svg>
