<svg width="112" height="15" viewBox="0 0 112 15" fill="none" xmlns="http://www.w3.org/2000/svg">
<g clip-path="url(#clip0_156_172)">
<path d="M67.1763 0.223633H70.4036V3.31749H67.1763V0.223633Z" fill="black"/>
<path d="M4.54216 0.38415L0 14.7763H1.52999L2.65358 11.0866H9.58634L10.7099 14.7763H12.2399L7.69776 0.38415H4.54216ZM3.03607 9.87199L5.83308 0.980005H6.40683L9.20384 9.87199H3.03607ZM23.667 1.53002C23.2606 1.16334 22.7825 0.888335 22.2805 0.704995C21.635 0.47582 20.9656 0.38415 20.2724 0.38415H14.9891V14.7763H16.4235V8.7032H21.4438C21.9458 8.7032 22.3044 8.81778 22.5434 9.06988C22.7586 9.34489 22.8781 9.68865 22.8542 10.0553V14.7992H24.2886V9.66573C24.3842 8.95529 23.8344 8.3136 23.0933 8.22193H23.0455L22.8542 8.19901V7.64899L22.9737 7.60316C23.5475 7.35107 24.0256 6.93855 24.3364 6.41145C24.6233 5.93018 24.7667 5.40308 24.7906 4.85306V4.21137C24.7906 3.70719 24.695 3.22592 24.5037 2.74465C24.3364 2.2863 24.0495 1.87379 23.667 1.53002ZM23.3562 4.71556C23.3562 5.60934 23.0694 6.29686 22.5195 6.75521C21.9697 7.21356 21.133 7.44274 20.0572 7.44274H16.3996V1.62169H20.0572C21.1569 1.62169 21.9936 1.87379 22.5434 2.37797C23.0933 2.88216 23.4041 3.5926 23.3802 4.32596V4.71556H23.3562ZM32.4406 14.7763H33.851V1.62169H38.3693V0.38415H27.9223V1.62169H32.4406V14.7763ZM50.6809 1.53002C50.2745 1.16334 49.7964 0.888335 49.2943 0.704995C48.6489 0.47582 47.9795 0.38415 47.2862 0.38415H41.9791V14.7763H43.4134V8.7032H47.2862C47.9556 8.72612 48.625 8.61153 49.2704 8.38235C49.7964 8.19901 50.2745 7.90109 50.6809 7.53441C51.0395 7.19064 51.3503 6.77813 51.5176 6.29686C51.7089 5.83851 51.8045 5.33433 51.8045 4.83014V4.18845C51.8045 3.68427 51.7089 3.203 51.5176 2.72173C51.3264 2.2863 51.0634 1.87379 50.6809 1.53002ZM50.3701 4.71556C50.3701 6.52604 49.2704 7.46565 47.0711 7.46565H43.4134V1.62169H47.0711C48.1708 1.62169 49.0075 1.87379 49.5573 2.37797C50.1072 2.88216 50.4179 3.5926 50.394 4.32596V4.71556H50.3701ZM79.0813 13.5388H75.089V14.7763H84.4602V13.5388H80.4918V1.62169H84.4602V0.38415H75.089V1.62169H79.0813V13.5388ZM96.1025 14.0659L91.7037 0.38415H88.3569V14.7763H89.7913V0.980005H90.4128L90.4606 1.11751L94.8832 14.7763H98.2062V0.38415H96.7957V14.2034H96.1503L96.1025 14.0659ZM106.095 14.7763H107.506V1.62169H112V0.38415H101.577V1.62169H106.095V14.7763ZM56.5618 7.48857C56.5857 4.28012 59.2154 1.64461 62.5622 1.53002V0.29248C58.4026 0.407068 55.1274 3.7301 55.247 7.71775C55.3665 11.7054 58.8329 14.8451 62.9925 14.7305C66.9848 14.6159 70.1883 11.545 70.3078 7.71775H68.993C68.9451 11.0179 66.1003 13.6305 62.6578 13.5846C59.2393 13.5159 56.514 10.7887 56.5618 7.48857Z" fill="black"/>
</g>
<defs>
<clipPath id="clip0_156_172">
<rect width="112" height="15" fill="white"/>
</clipPath>
</defs>
</svg>
