<svg width="111" height="27" viewBox="0 0 111 27" fill="none" xmlns="http://www.w3.org/2000/svg">
<g clip-path="url(#clip0_17_469)">
<path d="M106.024 21.4682H106.304C106.304 22.028 106.534 22.5294 106.91 22.8945C107.285 23.2596 107.8 23.4836 108.375 23.4836C108.946 23.4836 109.466 23.2596 109.841 22.8945C110.217 22.5294 110.447 22.028 110.447 21.4682H110.722C110.722 22.7339 109.671 23.7562 108.375 23.7562C107.08 23.7562 106.029 22.7339 106.024 21.4682ZM110.447 21.4682C110.447 20.9132 110.217 20.4069 109.841 20.0467C109.466 19.6816 108.946 19.4528 108.375 19.4528V19.1851C109.671 19.1851 110.722 20.2074 110.722 21.4682H110.447ZM106.024 21.4682C106.029 20.2074 107.08 19.1851 108.375 19.1851V19.4528C107.8 19.4528 107.285 19.6816 106.91 20.0467C106.534 20.4069 106.304 20.9132 106.304 21.4682H106.024Z" fill="black"/>
<path d="M36.248 7.52637H40.3708V22.8267H36.248V7.52637Z" fill="black"/>
<path d="M96.5676 16.3035V22.7683L92.4199 22.7537V7.0542L99.8898 13.3097V7.5264H104.003V23.3914L96.5676 16.3035Z" fill="black"/>
<path d="M15.5146 15.1349C15.5146 10.7925 19.137 7.26807 23.6 7.26807C25.6113 7.26807 27.4525 7.98854 28.8684 9.17148L26.1967 12.1215C25.4962 11.5471 24.5906 11.2015 23.6 11.2015C21.3685 11.2015 19.5573 12.9637 19.5573 15.1349C19.5573 17.306 21.3685 19.0682 23.6 19.0682C24.6056 19.0682 25.5262 18.708 26.2367 18.1141L28.9034 21.069C27.4875 22.2714 25.6313 22.9968 23.6 22.9968C19.137 22.9968 15.5146 19.4772 15.5146 15.1349Z" fill="black"/>
<path d="M48.2209 26.3266L40.4208 6.16312H33.9015V22.8849H29.6337V6.16312H20.1875L22.3789 2.14697H43.4678L48.2209 14.2295L52.979 2.14697H73.3974L75.6489 6.16312H56.026L48.2209 26.3266Z" fill="black"/>
<path d="M61.3999 22.7681V19.3897H64.2318C64.6921 19.3897 65.5676 19.3556 65.7878 18.6448C66.2431 17.165 61.58 14.765 61.58 11.0847C61.58 8.30021 63.6514 7.46777 65.0573 7.46777H69.3501V10.7878H66.6984C66.6984 10.7878 65.9379 10.7878 65.7277 11.0847C64.577 12.6863 69.9905 15.0279 69.9905 19.3312C69.9905 21.5803 68.0092 22.7681 66.0329 22.7681H61.3999Z" fill="black"/>
<path d="M56.0864 7.46777H60.2141V22.7681H56.0864V7.46777Z" fill="black"/>
<path d="M70.6606 7.46777H74.7884V22.7681H70.6606V7.46777Z" fill="black"/>
<path d="M108.986 22.6368C108.916 22.4762 108.926 22.2328 108.896 22.0283C108.856 21.7606 108.751 21.6437 108.461 21.6437H107.885V22.6368H107.315V20.0957H108.721C109.191 20.0957 109.486 20.4121 109.486 20.7967C109.486 21.0985 109.361 21.3225 109.071 21.4344V21.4442C109.356 21.5123 109.436 21.7801 109.451 22.0381C109.466 22.1987 109.461 22.4957 109.561 22.6368H108.986ZM107.885 21.2494H108.516C108.771 21.2494 108.911 21.1423 108.911 20.8843C108.911 20.6409 108.771 20.5338 108.516 20.5338H107.885V21.2494Z" fill="black"/>
<path d="M12.3823 22.8266L11.2865 19.9788H6.16817L5.07245 22.8266H0.68457L8.72985 0.414062L16.7751 22.8266H12.3823ZM7.41899 15.8896H9.85559L8.63479 11.9757L7.41899 15.8896Z" fill="black"/>
<path d="M75.5391 15.1299C75.5391 10.7828 79.1664 7.25342 83.6394 7.25342C88.1073 7.25342 91.7347 10.7828 91.7347 15.1299C91.7347 19.482 88.1073 23.0113 83.6394 23.0113C79.1664 23.0113 75.5391 19.482 75.5391 15.1299ZM79.6167 15.1299C79.6167 17.2914 81.4179 19.0439 83.6394 19.0439C85.8558 19.0439 87.657 17.2914 87.657 15.1299C87.657 12.9734 85.8558 11.2209 83.6394 11.2209C81.4179 11.2209 79.6167 12.9734 79.6167 15.1299Z" fill="black"/>
</g>
<defs>
<clipPath id="clip0_17_469">
<rect width="111" height="27" fill="white"/>
</clipPath>
</defs>
</svg>
