<svg width="98" height="25" viewBox="0 0 98 25" fill="none" xmlns="http://www.w3.org/2000/svg">
<mask id="mask0_156_166" style="mask-type:luminance" maskUnits="userSpaceOnUse" x="0" y="0" width="98" height="25">
<path d="M0 0.686035H98V24.3144H0V0.686035Z" fill="white"/>
</mask>
<g mask="url(#mask0_156_166)">
<path d="M92.2092 14.9936C91.1221 15.7153 89.8196 16.0407 88.5207 15.9151C87.2219 15.7895 86.0059 15.2206 85.0772 14.304C84.039 13.2505 83.4562 11.8314 83.4543 10.3523C83.4543 8.88045 84.0352 7.46438 85.0772 6.40199C85.7052 5.78477 86.4686 5.3227 87.3067 5.05257C88.1491 4.78075 89.0429 4.7072 89.9185 4.83765C90.7945 4.96823 91.627 5.30015 92.3466 5.80346C93.0676 6.30677 93.6566 6.97195 94.0647 7.74052L97.9891 6.09456C97.2415 4.53512 96.0772 3.21273 94.6251 2.27348C93.039 1.21517 91.1835 0.679212 89.0384 0.679212C87.7395 0.656527 86.4493 0.895228 85.2445 1.38113C84.046 1.86374 82.9584 2.5853 82.0478 3.50183C80.1461 5.38857 79.2007 7.6589 79.2007 10.3455C79.2007 13.0321 80.1474 15.3024 82.0478 17.1878C82.958 18.1045 84.0451 18.8265 85.2431 19.3099C86.4484 19.7959 87.739 20.0346 89.0384 20.0118C91.1835 20.0118 93.039 19.4745 94.6237 18.4175C96.0754 17.4777 97.2395 16.1555 97.9878 14.5964L94.0633 12.9505C93.637 13.7836 92.9972 14.4887 92.2092 14.9936ZM15.6652 3.75213L14.7824 2.83665C13.4017 1.41649 11.5585 0.695536 9.19834 0.695536C7.69838 0.691447 6.21783 1.03458 4.87259 1.69808C3.56398 2.35102 2.41317 3.42566 1.43919 4.95599C0.486985 6.4564 0 8.24791 0 10.3645C0 13.4334 0.959012 15.7799 2.83078 17.4653C4.77601 19.1929 6.86679 20.0254 9.11808 20.0254C11.5163 20.0254 13.3799 19.2187 14.7633 17.6204L15.6652 16.577V19.635H20.1134V1.0805H15.6652V3.75213ZM14.2151 14.4141C13.707 14.9638 13.0867 15.398 12.3964 15.6874C11.7025 15.979 10.9547 16.1204 10.2022 16.1023C9.42864 16.1145 8.66 15.9768 7.9387 15.6969C7.22112 15.4187 6.56492 15.0028 6.00708 14.4726C4.89436 13.3572 4.34343 11.9629 4.34343 10.3292C4.34343 8.69681 4.90388 7.31067 6.01388 6.21699C6.56752 5.68647 7.22455 5.2675 7.9455 4.98864C8.6676 4.70891 9.43755 4.57349 10.2118 4.59007C11.8564 4.59007 13.1636 5.15323 14.2219 6.27412C14.7483 6.80921 15.1626 7.44396 15.4406 8.1412C15.7185 8.83844 15.8546 9.58414 15.8407 10.3346C15.8569 11.855 15.2728 13.3218 14.2151 14.4141ZM37.8081 11.6514V11.6405C37.4526 10.969 36.9102 10.4148 36.2465 10.0449C35.5675 9.64789 34.8496 9.32153 34.104 9.07089C33.2699 8.80904 32.4221 8.59288 31.5644 8.42339C29.9443 8.11052 28.803 7.84254 28.1772 7.62082H28.1473C27.4944 7.34604 26.9965 6.88897 26.9965 6.18026C26.9964 5.87043 27.0753 5.5657 27.2257 5.29485C27.3762 5.02399 27.5932 4.79594 27.8562 4.63224C28.433 4.23775 29.2056 4.07452 30.1007 4.07452C31.0978 4.07452 31.9684 4.25816 32.6825 4.68393C33.2539 5.02129 33.7191 5.50283 34.032 6.0796L37.887 4.49077C37.2057 3.34312 36.2248 2.40263 35.0495 1.77017C33.7327 1.06146 32.1031 0.695536 30.1401 0.695536C27.8358 0.66833 25.9885 1.24374 24.5548 2.38231C23.121 3.51952 22.4667 4.81044 22.4667 6.33397C22.4483 7.15979 22.621 7.97868 22.9714 8.72674C23.325 9.37016 23.8515 9.90884 24.4949 10.2816C25.1791 10.6679 25.896 10.993 26.6387 11.2569C27.478 11.5085 28.3323 11.7072 29.1988 11.8527C29.3212 11.8581 29.4437 11.8745 29.5634 11.899C30.5999 12.0622 31.6188 12.3193 32.6077 12.6648C33.3396 12.9233 33.9367 13.3966 33.9367 14.1516C33.9367 14.8467 33.5627 15.4031 32.9587 15.8139C32.3547 16.2261 31.5753 16.4138 30.6652 16.4138C29.5443 16.4138 28.5799 16.1771 27.7787 15.6683C27.1001 15.2318 26.5539 14.6179 26.1994 13.8932L21.9171 15.5255C22.548 16.8901 23.5871 18.0252 24.8907 18.7739C26.3245 19.5969 28.1582 20.0254 30.4272 20.0254C32.9995 20.0485 34.9366 19.4092 36.3037 18.1672C37.717 16.8572 38.3822 15.4684 38.3822 13.9952C38.4045 13.1804 38.2071 12.3746 37.8109 11.6623L37.8081 11.6514ZM70.3615 0.695536C68.2231 0.695536 66.5349 1.48723 65.2495 3.08558L64.334 4.22415V1.07914H59.9239V19.635H64.3721V9.45994C64.3721 7.83166 64.7325 6.51897 65.5378 5.60757C65.9315 5.172 66.4152 4.82715 66.9553 4.59687C67.4983 4.36569 68.0846 4.25345 68.6747 4.26768C69.933 4.26768 71.0511 4.67169 71.783 5.5382C72.5311 6.36798 72.8658 7.51743 72.8658 8.91446V19.6391H77.3956V8.20711C77.3956 5.76265 76.7549 3.92897 75.5265 2.64076C74.2982 1.35392 72.6223 0.695536 70.3615 0.695536ZM49.2251 13.4538L43.7336 1.06962H38.9753L45.1755 15.0372C45.2905 15.2964 45.456 15.5303 45.6622 15.725C45.8684 15.9198 46.1113 16.0716 46.3767 16.1717C46.6975 16.2952 47.0425 16.3427 47.3848 16.3104C47.727 16.2781 48.0571 16.1668 48.3491 15.9853L48.1627 16.5349C47.8037 17.5666 47.1282 18.4587 46.2325 19.0841C45.3278 19.7169 44.25 20.0556 43.146 20.0539H38.3985V24.3226H43.1446C45.1597 24.3241 47.1263 23.7042 48.7762 22.5474C50.4096 21.4039 51.6402 19.7738 52.2926 17.8897L58.1201 1.06282H53.5141L49.2251 13.4538Z" fill="black"/>
</g>
</svg>
