<svg width="127" height="19" viewBox="0 0 127 19" fill="none" xmlns="http://www.w3.org/2000/svg">
<path fill-rule="evenodd" clip-rule="evenodd" d="M57.1546 4.40543H59.4679V0.550391L64.5914 0V4.40466H67.4293V8.81009H64.5914V18.6664H59.4679V8.81086H57.1546V4.4062V4.40543ZM20.7709 4.43233V9.16754C20.1095 8.78319 19.5588 8.50722 18.4845 8.50722C16.8594 8.50722 15.3444 9.63645 15.3444 11.5359C15.3444 13.4354 16.8594 14.5646 18.4845 14.5646C19.5588 14.5646 20.1095 14.2886 20.7709 13.9035V18.6387C19.9718 18.887 19.1735 18.9969 18.1538 18.9969C14.0777 18.9969 10.4693 15.9406 10.4693 11.5359C10.4693 7.13125 14.0777 4.07489 18.1538 4.07489C19.1735 4.07489 19.9718 4.18481 20.7709 4.43233ZM30.5488 4.07489C34.7356 4.07489 38.3717 7.15815 38.3717 11.5359C38.3717 15.9137 34.7363 18.9969 30.5488 18.9969C26.3628 18.9969 22.7266 15.9137 22.7266 11.5359C22.7266 7.15815 26.3628 4.07489 30.5488 4.07489ZM30.5488 14.6745C32.3399 14.6745 33.6343 13.2985 33.6343 11.5359C33.6343 9.77404 32.3399 8.3973 30.5488 8.3973C28.7584 8.3973 27.4648 9.77327 27.4648 11.5359C27.4648 13.2978 28.7592 14.6745 30.5488 14.6745ZM45.6709 18.6664V8.81086H49.6377V18.6672H54.7605V4.4062H40.5481V18.6656H45.6709V18.6664ZM83.6273 14.0988H78.7799C78.2838 14.7598 77.5401 15.0074 76.4658 15.0074C75.1714 15.0074 74.0694 14.3194 73.6287 13.0249H83.7926C84.4263 8.06983 81.4793 4.07719 76.4381 4.07719C72.3343 4.07719 68.7813 7.2158 68.7813 11.5382C68.7813 15.8606 72.3343 19 76.4381 19C79.8266 19 82.7459 17.3473 83.6273 14.0988ZM78.9452 9.99697H73.6564C74.1247 8.78549 75.1991 8.12441 76.4381 8.12441C77.9262 8.12441 78.8076 9.14294 78.9452 9.99697ZM89.6021 4.40543L91.7778 7.87381L94.0919 4.40543H99.4631L94.6426 11.2607L99.7938 18.6664H94.0919L91.5579 14.7844L88.9961 18.6664H83.5696L88.7754 11.4529L83.9003 4.40543H89.6021ZM102.713 4.40543H100.4V8.81009H102.713V18.6664H107.837V8.81086H110.674V4.4062H107.837V0.00153803L102.713 0.551159V4.4062V4.40543ZM121.902 14.0988H126.75C125.868 17.3481 122.949 19 119.56 19C115.457 19 111.903 15.8614 111.903 11.5382C111.903 7.2158 115.457 4.07719 119.56 4.07719C124.601 4.07719 127.549 8.06983 126.915 13.0249H116.751C117.192 14.3194 118.294 15.0081 119.588 15.0081C120.662 15.0081 121.406 14.7598 121.902 14.0988ZM116.779 9.99697H122.067C121.929 9.14371 121.048 8.12441 119.56 8.12441C118.321 8.12441 117.247 8.78549 116.779 9.99697ZM7.38302 11.5651C7.38302 13.5422 5.7303 15.145 3.69151 15.145C1.65349 15.145 0 13.5422 0 11.5651C0 9.58802 1.65349 7.98527 3.69151 7.98527C5.7303 7.98527 7.38302 9.58802 7.38302 11.5651Z" fill="black"/>
</svg>
