<svg width="122" height="27" viewBox="0 0 122 27" fill="none" xmlns="http://www.w3.org/2000/svg">
<path d="M117.664 18.641C117.664 19.2467 117.868 19.7437 118.276 20.132C118.685 20.5048 119.203 20.7067 119.832 20.7067C120.46 20.7067 120.979 20.5203 121.387 20.132C121.796 19.7437 122 19.2622 122 18.641C122 18.0352 121.796 17.5382 121.387 17.1655C120.979 16.7927 120.46 16.5908 119.832 16.5908C119.203 16.5908 118.685 16.7772 118.276 17.1655C117.852 17.5382 117.664 18.0352 117.664 18.641ZM106.163 26.1738H109.368L116.721 6.94564H113.61C113.044 8.49881 112.526 9.94325 112.023 11.279L111.395 12.9875C111.19 13.5621 110.986 14.0902 110.813 14.5872C110.641 15.0842 110.483 15.5346 110.358 15.9229C110.216 16.3268 110.122 16.6219 110.075 16.8082H110.012C109.934 16.6219 109.824 16.3268 109.698 15.9229C109.556 15.5191 109.399 15.0842 109.227 14.5872C109.038 14.0902 108.849 13.5621 108.63 12.9875L108.001 11.279C107.498 9.94325 106.964 8.49881 106.414 6.94564H103.068L108.441 20.4892L106.163 26.1738ZM93.9864 20.8154C95.259 20.8775 96.1703 21.0018 96.7202 21.1882C97.2701 21.3746 97.5372 21.7628 97.5372 22.322C97.5372 22.6792 97.4429 22.9898 97.2386 23.2539C97.0344 23.5179 96.7516 23.7198 96.4059 23.8907C96.0446 24.0615 95.6204 24.1858 95.1333 24.2634C94.6462 24.3411 94.112 24.3722 93.5621 24.3722C92.4466 24.3722 91.5511 24.2168 90.8755 23.9373C90.1999 23.6422 89.8699 23.1452 89.8699 22.4618C89.8699 22.0579 89.9642 21.6697 90.137 21.3124C90.3099 20.9552 90.5927 20.6756 90.9697 20.5048C91.2997 20.5824 91.7082 20.6446 92.2267 20.6912C92.7137 20.7378 93.3108 20.7688 93.9864 20.8154ZM90.954 11.5119C90.954 10.5956 91.2054 9.91219 91.7239 9.44624C92.2267 8.98029 92.8708 8.74731 93.6093 8.74731C94.3791 8.74731 95.0233 8.98029 95.5261 9.44624C96.0289 9.91219 96.296 10.5956 96.296 11.5119C96.296 12.4283 96.0446 13.0962 95.5261 13.5311C95.0233 13.966 94.3791 14.1834 93.6093 14.1834C92.8551 14.1834 92.2267 13.966 91.7239 13.5311C91.2054 13.0962 90.954 12.4283 90.954 11.5119ZM100.554 8.71625L101.167 6.60394C100.962 6.51075 100.711 6.43309 100.412 6.37097C100.13 6.30884 99.7996 6.27778 99.454 6.27778C98.8255 6.27778 98.2756 6.37097 97.8357 6.54182C97.3958 6.7282 96.9873 6.96117 96.6259 7.2718C96.2174 7.08542 95.746 6.91458 95.2119 6.77479C94.6777 6.63501 94.0963 6.55735 93.4836 6.55735C92.7451 6.55735 92.0381 6.66607 91.3625 6.88351C90.6869 7.10096 90.0742 7.42712 89.5243 7.83094C88.9901 8.2503 88.5502 8.77837 88.2202 9.39964C87.8903 10.0209 87.7332 10.7354 87.7332 11.543C87.7332 12.3041 87.8746 12.9719 88.1731 13.5466C88.4716 14.1213 88.8644 14.6027 89.3672 14.991C88.7544 15.2551 88.2831 15.6123 87.9374 16.0472C87.6075 16.4821 87.4346 16.9636 87.4346 17.5072C87.4346 17.9265 87.5446 18.3459 87.7803 18.7652C88.016 19.1846 88.3931 19.5108 88.9115 19.7593C88.3616 19.9922 87.8903 20.3805 87.5132 20.9086C87.1361 21.4522 86.9476 22.0579 86.9476 22.7413C86.9476 23.4092 87.1047 23.9683 87.4346 24.4343C87.7646 24.9002 88.2202 25.2885 88.7858 25.5992C89.3672 25.9098 90.0428 26.1428 90.8283 26.2826C91.6139 26.4223 92.4781 26.5 93.3893 26.5C94.3634 26.5 95.2904 26.4068 96.1545 26.236C97.0187 26.0651 97.7728 25.8011 98.417 25.4438C99.0612 25.0866 99.5639 24.6207 99.941 24.046C100.318 23.4713 100.507 22.7879 100.507 21.9958C100.507 21.2658 100.35 20.6756 100.067 20.2252C99.7682 19.7748 99.3597 19.402 98.8255 19.138C98.2913 18.874 97.6786 18.672 96.9715 18.5323C96.2645 18.3925 95.5104 18.2993 94.7091 18.2527C94.0021 18.1906 93.3736 18.144 92.8237 18.1129C92.2738 18.0818 91.8182 18.0197 91.4568 17.9576C91.0954 17.8955 90.8126 17.7867 90.6398 17.6625C90.4513 17.5227 90.3727 17.3363 90.3727 17.0878C90.3727 16.7151 90.5141 16.4355 90.7969 16.2957C91.0797 16.1404 91.3154 16.0627 91.5354 16.0627C91.7239 16.0627 91.9753 16.0938 92.3052 16.1714C92.6195 16.2491 93.0594 16.2802 93.625 16.2802C94.3949 16.2802 95.1333 16.1714 95.8403 15.9695C96.5473 15.7676 97.1601 15.4415 97.6943 15.0221C98.2285 14.6027 98.6684 14.1057 98.9983 13.5155C99.3283 12.9253 99.4854 12.2419 99.4854 11.4654C99.4854 10.9373 99.3911 10.4247 99.2183 9.92772C99.0455 9.43071 98.7941 9.01135 98.4641 8.66965C98.5584 8.57646 98.6998 8.49881 98.8884 8.42115C99.0769 8.35902 99.2811 8.32796 99.5325 8.32796C99.7054 8.32796 99.8782 8.35902 100.067 8.40562C100.271 8.49881 100.428 8.59199 100.554 8.71625ZM77.8506 18.3614C77.2536 18.3614 76.7351 18.2372 76.3109 17.9887C75.871 17.7401 75.5096 17.414 75.2268 16.9946C74.944 16.5753 74.724 16.0938 74.5826 15.5191C74.4412 14.96 74.3627 14.3542 74.3627 13.7019C74.3627 13.0496 74.4412 12.4438 74.5826 11.8847C74.724 11.3256 74.944 10.8286 75.2268 10.4092C75.5096 9.98984 75.871 9.66368 76.3109 9.41517C76.7508 9.16667 77.2536 9.04241 77.8506 9.04241C78.4477 9.04241 78.9661 9.16667 79.4061 9.41517C79.846 9.66368 80.2073 9.98984 80.5059 10.4092C80.7887 10.8286 81.0086 11.3256 81.15 11.8847C81.2914 12.4438 81.37 13.0496 81.37 13.7019C81.37 14.3542 81.2914 14.96 81.15 15.5191C81.0086 16.0783 80.7887 16.5753 80.5059 16.9946C80.2231 17.414 79.846 17.7401 79.4061 17.9887C78.9661 18.2372 78.4477 18.3614 77.8506 18.3614ZM77.8506 6.57288C76.7979 6.57288 75.8395 6.74373 74.9911 7.08542C74.1427 7.42712 73.4357 7.9086 72.8386 8.5454C72.2573 9.16667 71.8017 9.92772 71.4874 10.7975C71.1732 11.6673 71.0161 12.6458 71.0161 13.7019C71.0161 14.7581 71.1732 15.7366 71.4874 16.6063C71.8017 17.4761 72.2573 18.2372 72.8386 18.8584C73.42 19.4797 74.1427 19.9767 74.9911 20.3184C75.8395 20.6601 76.7822 20.8309 77.8506 20.8309C78.9033 20.8309 79.8617 20.6601 80.7101 20.3184C81.5585 19.9767 82.2813 19.4952 82.8783 18.8584C83.4753 18.2372 83.931 17.4761 84.2452 16.6063C84.5594 15.7366 84.7166 14.7581 84.7166 13.7019C84.7166 12.6458 84.5594 11.6673 84.2452 10.7975C83.931 9.92772 83.4753 9.16667 82.8783 8.5454C82.2813 7.92413 81.5585 7.42712 80.7101 7.08542C79.8617 6.74373 78.919 6.57288 77.8506 6.57288ZM64.2444 20.4737H67.5281V0.5H64.2444V20.4737ZM53.8591 18.3614C53.2621 18.3614 52.7436 18.2372 52.3194 17.9887C51.8795 17.7401 51.5181 17.414 51.2353 16.9946C50.9525 16.5753 50.7325 16.0938 50.5911 15.5191C50.4497 14.96 50.3712 14.3542 50.3712 13.7019C50.3712 13.0496 50.4497 12.4438 50.5911 11.8847C50.7325 11.3256 50.9525 10.8286 51.2353 10.4092C51.5181 9.98984 51.8795 9.66368 52.3194 9.41517C52.7593 9.16667 53.2621 9.04241 53.8591 9.04241C54.4562 9.04241 54.9746 9.16667 55.4146 9.41517C55.8545 9.66368 56.2158 9.98984 56.5144 10.4092C56.7972 10.8286 57.0171 11.3256 57.1585 11.8847C57.2999 12.4438 57.3785 13.0496 57.3785 13.7019C57.3785 14.3542 57.2999 14.96 57.1585 15.5191C57.0171 16.0783 56.7972 16.5753 56.5144 16.9946C56.2316 17.414 55.8545 17.7401 55.4146 17.9887C54.9903 18.2372 54.4562 18.3614 53.8591 18.3614ZM53.8591 6.57288C52.8064 6.57288 51.848 6.74373 50.9996 7.08542C50.1512 7.42712 49.4442 7.9086 48.8471 8.5454C48.2658 9.16667 47.8102 9.92772 47.4959 10.7975C47.1817 11.6673 47.0246 12.6458 47.0246 13.7019C47.0246 14.7581 47.1817 15.7366 47.4959 16.6063C47.8102 17.4761 48.2658 18.2372 48.8471 18.8584C49.4285 19.4797 50.1512 19.9767 50.9996 20.3184C51.848 20.6601 52.7907 20.8309 53.8591 20.8309C54.9275 20.8309 55.8702 20.6601 56.7186 20.3184C57.567 19.9767 58.2898 19.4952 58.8868 18.8584C59.4838 18.2372 59.9395 17.4761 60.2537 16.6063C60.5679 15.7366 60.725 14.7581 60.725 13.7019C60.725 12.6458 60.5679 11.6673 60.2537 10.7975C59.9395 9.92772 59.4838 9.16667 58.8868 8.5454C58.2898 7.92413 57.567 7.42712 56.7186 7.08542C55.8702 6.74373 54.9275 6.57288 53.8591 6.57288ZM33.8112 14.3698V13.0651C33.8112 12.3662 33.9212 11.7605 34.1569 11.2634C34.3925 10.7664 34.6753 10.3626 35.021 10.052C35.3667 9.74134 35.7594 9.50836 36.1836 9.36858C36.6236 9.22879 37.0321 9.15113 37.4406 9.15113C37.9748 9.15113 38.4618 9.25986 38.9017 9.49283C39.3417 9.72581 39.703 10.0364 40.0173 10.4403C40.3315 10.8441 40.5672 11.3411 40.7243 11.9002C40.8814 12.4594 40.9757 13.0651 40.9757 13.7174C40.9757 14.3853 40.8971 14.991 40.7243 15.5502C40.5672 16.0938 40.3315 16.5753 40.0173 16.9946C39.703 17.3984 39.3417 17.7246 38.9017 17.9576C38.4618 18.1906 37.9905 18.2993 37.4406 18.2993C37.0321 18.2993 36.6236 18.2216 36.1836 18.0818C35.7437 17.9421 35.3667 17.7091 35.021 17.3984C34.6753 17.0878 34.3925 16.684 34.1569 16.187C33.9369 15.6744 33.8112 15.0687 33.8112 14.3698ZM38.1476 20.8465C39.0274 20.8465 39.8444 20.6756 40.5986 20.3495C41.3527 20.0233 41.9969 19.5418 42.5468 18.9206C43.0967 18.2993 43.5209 17.5538 43.8509 16.684C44.1651 15.8142 44.3222 14.8202 44.3222 13.7174C44.3222 12.6147 44.1651 11.6207 43.8509 10.7509C43.5366 9.88112 43.0967 9.1356 42.5468 8.51434C41.9969 7.89307 41.3527 7.42712 40.5986 7.08542C39.8444 6.75926 39.0274 6.58841 38.1476 6.58841C37.0478 6.58841 36.1365 6.82139 35.3981 7.2718C34.6596 7.72222 34.094 8.29689 33.7169 8.94922V6.94564H30.5746V26.1738H33.8583V18.7808C34.2354 19.3088 34.7696 19.7903 35.4609 20.2097C36.1208 20.629 37.0321 20.8465 38.1476 20.8465ZM17.267 26.1738H20.4721L27.8251 6.94564H24.7142C24.1643 8.49881 23.6301 9.94325 23.1274 11.279L22.4989 12.9875C22.2947 13.5621 22.0904 14.0902 21.9176 14.5872C21.7448 15.0842 21.5876 15.5346 21.4619 15.9229C21.3205 16.3268 21.2263 16.6219 21.1791 16.8082H21.1163C21.0377 16.6219 20.9278 16.3268 20.8021 15.9229C20.6607 15.5191 20.5035 15.0842 20.3307 14.5872C20.1422 14.0902 19.9536 13.5621 19.7337 12.9875L19.1052 11.279C18.6024 9.94325 18.0683 8.49881 17.5184 6.94564H14.1718L19.5451 20.4892L17.267 26.1738ZM0 0.5V3.26463H5.92325V20.4582H9.33265V3.26463H15.2402V0.5H0Z" fill="black"/>
</svg>
