<svg width="76" height="23" viewBox="0 0 76 23" fill="none" xmlns="http://www.w3.org/2000/svg">
<path d="M21.9036 2.49424L22.8 0.956949C22.8 0.956949 12.4663 -2.47046 7.56083 4.38435C7.56083 4.38435 5.41938 7.81176 9.51553 9.52546C9.51553 9.52546 3.19078 9.71447 0.252507 16.6575C0.252507 16.6575 -1.71464 21.975 5.33223 22.8823C5.33223 22.8823 9.60268 23.2351 15.1306 20.8031L16.2885 18.4594C16.2885 18.4594 10.7606 20.8031 7.21222 19.9967C7.21222 19.9967 3.37753 18.913 5.95474 14.6792C5.95474 14.6792 8.35765 10.0799 15.7531 10.3571L16.5499 9.09703C16.5499 9.09703 9.68983 9.27344 10.8477 5.216C10.8602 5.2034 12.4663 0.427717 21.9036 2.49424Z" fill="black"/>
<path d="M27.8294 4.32227H31.6604L29.3642 8.64849H32.0887L31.3273 10.7685H27.9246L23.1417 18.7923C23.1417 18.7923 22.5231 19.5811 23.225 20.296C23.225 20.296 24.0817 20.9986 27.3178 18.8786L26.4612 21.1711C26.4612 21.1711 22.7134 23.2541 20.2506 22.8474C20.2506 22.8474 17.7045 21.8737 18.8943 19.31L27.8294 4.32227Z" fill="black"/>
<path d="M47.2891 21.9544L54.8846 9.88863H58.9765L57.8768 11.7898C57.8768 11.7898 60.0123 10.5223 63.0301 9.78723C63.0301 9.78723 68.7971 8.06355 67.4161 11.7898C67.4161 11.7898 72.0834 9.06481 74.1805 9.69852C74.1805 9.69852 77.3005 9.87595 75.3697 12.791L69.884 22.0432H65.677L71.0732 13.2346C71.0732 13.2346 72.3519 11.4222 70.4338 11.8785C70.4338 11.8785 67.2242 12.8797 65.9455 13.881L60.3959 22.0178L56.6109 22.0558L61.7258 13.5261C61.7258 13.5261 63.094 11.5363 60.8179 11.8911C60.8179 11.8911 58.6185 12.5249 56.9817 13.5261L51.2275 21.9798L47.2891 21.9544Z" fill="black"/>
<path d="M48.9779 10.4689L44.3771 18.6388C44.3771 18.6388 43.5732 19.8909 44.6368 19.8909C44.6368 19.8909 46.4054 19.8289 47.2959 19.2091L46.5043 21.1307C46.5043 21.1307 45.0944 22.1968 41.2728 22.7299C41.2728 22.7299 38.7993 23.0894 39.7763 20.7835C39.7763 20.7835 37.3894 22.296 33.7533 22.8291C33.7533 22.8291 29.0659 23.6225 29.5977 19.9033C29.5977 19.9033 30.9211 11.0268 43.0414 10.2334L48.9779 10.4689ZM34.384 16.7792C32.702 19.5314 34.0254 20.5108 34.0254 20.5108C36.672 21.8497 40.135 19.4446 40.135 19.4446L44.3895 11.9938C45.1934 10.7541 42.1757 11.374 42.1757 11.374C36.5855 12.3409 34.384 16.7792 34.384 16.7792Z" fill="black"/>
</svg>
