<svg width="87" height="15" viewBox="0 0 87 15" fill="none" xmlns="http://www.w3.org/2000/svg">
<g clip-path="url(#clip0_155_125)">
<path d="M20.9164 0.703894C20.9164 0.51721 20.8479 0.338172 20.7259 0.206166C20.6039 0.07416 20.4385 0 20.266 0H16.5458C16.4323 0.000741462 16.321 0.0336172 16.2229 0.09536C16.1248 0.157103 16.0432 0.245562 15.9865 0.351948L10.4582 10.4387L4.92993 0.351948C4.87318 0.245562 4.7917 0.157103 4.69357 0.09536C4.59544 0.0336172 4.4841 0.000741462 4.3706 0H0.650388C0.477893 0 0.312465 0.07416 0.190494 0.206166C0.0685224 0.338172 0 0.51721 0 0.703894V14.0779C0 14.2646 0.0685224 14.4436 0.190494 14.5756C0.312465 14.7076 0.477893 14.7818 0.650388 14.7818H2.8617C3.03419 14.7818 3.19962 14.7076 3.32159 14.5756C3.44356 14.4436 3.51209 14.2646 3.51209 14.0779V4.64571L8.9997 14.4421C9.0576 14.5458 9.1392 14.6314 9.23658 14.6909C9.33402 14.7504 9.44394 14.7817 9.55578 14.7818H11.3606C11.4725 14.7817 11.5824 14.7504 11.6798 14.6909C11.7772 14.6314 11.8588 14.5458 11.9167 14.4421L17.3978 4.64571V14.0779C17.3978 14.2646 17.4664 14.4436 17.5883 14.5756C17.7103 14.7076 17.8757 14.7818 18.0482 14.7818H20.2595C20.432 14.7818 20.5975 14.7076 20.7194 14.5756C20.8414 14.4436 20.9099 14.2646 20.9099 14.0779L20.9164 0.703894Z" fill="black"/>
<path d="M30.8945 11.9654C27.8051 11.9654 26.2767 11.1489 26.2767 8.57269C26.2767 5.99642 27.8051 5.15174 30.8945 5.15174C33.9838 5.15174 35.5057 5.98234 35.5057 8.57269C35.5057 11.163 33.9838 11.9654 30.8945 11.9654ZM30.8945 14.9851C35.6358 14.9851 38.8617 13.1269 38.8617 8.56563C38.8617 4.0044 35.6423 2.125 30.8945 2.125C26.1467 2.125 22.9272 3.98328 22.9272 8.56563C22.9272 13.148 26.1402 14.9922 30.8945 14.9922V14.9851Z" fill="black"/>
<path d="M54.0474 3.04764C54.0474 2.86096 53.9789 2.68193 53.8569 2.54992C53.7349 2.41791 53.5695 2.34375 53.397 2.34375H41.1567C40.9842 2.34375 40.8188 2.41791 40.6968 2.54992C40.5749 2.68193 40.5063 2.86096 40.5063 3.04764V4.65956C40.5063 4.84625 40.5749 5.02529 40.6968 5.15729C40.8188 5.2893 40.9842 5.36346 41.1567 5.36346H49.1044L40.7876 11.5524C40.7009 11.6171 40.6301 11.7036 40.5811 11.8044C40.532 11.9053 40.5064 12.0175 40.5063 12.1314V14.0777C40.5063 14.2644 40.5749 14.4434 40.6968 14.5754C40.8188 14.7074 40.9842 14.7816 41.1567 14.7816H53.397C53.5695 14.7816 53.7349 14.7074 53.8569 14.5754C53.9789 14.4434 54.0474 14.2644 54.0474 14.0777V12.4658C54.0474 12.2791 53.9789 12.1001 53.8569 11.968C53.7349 11.836 53.5695 11.7619 53.397 11.7619H45.4427L53.7644 5.57287C53.8514 5.50841 53.9227 5.42203 53.9719 5.32117C54.0212 5.22031 54.0471 5.10801 54.0474 4.99391V3.04764Z" fill="black"/>
<path d="M69.6173 3.04764C69.6173 2.86096 69.5483 2.68193 69.4265 2.54992C69.3047 2.41791 69.1391 2.34375 68.9669 2.34375H56.728C56.5555 2.34375 56.3901 2.41791 56.2681 2.54992C56.1462 2.68193 56.0776 2.86096 56.0776 3.04764V4.65956C56.0776 4.84625 56.1462 5.02529 56.2681 5.15729C56.3901 5.2893 56.5555 5.36346 56.728 5.36346H64.6823L56.3589 11.5524C56.2722 11.6171 56.2014 11.7036 56.1523 11.8044C56.1034 11.9053 56.0777 12.0175 56.0776 12.1314V14.0777C56.0776 14.2644 56.1462 14.4434 56.2681 14.5754C56.3901 14.7074 56.5555 14.7816 56.728 14.7816H68.9669C69.1391 14.7816 69.3047 14.7074 69.4265 14.5754C69.5483 14.4434 69.6173 14.2644 69.6173 14.0777V12.4658C69.6173 12.2791 69.5483 12.1001 69.4265 11.968C69.3047 11.836 69.1391 11.7619 68.9669 11.7619H61.0127L69.3359 5.57287C69.4223 5.50821 69.4931 5.42174 69.5423 5.3209C69.5915 5.22006 69.6167 5.10785 69.6173 4.99391V3.04764Z" fill="black"/>
<path d="M83.7719 10.2003C83.7725 10.3365 83.7359 10.4698 83.6657 10.5828C83.5955 10.6958 83.4953 10.7833 83.3783 10.8338C81.6695 11.5483 79.2617 12.0656 77.5799 12.0656C75.8435 12.0656 74.7317 11.9601 74.7317 10.6578C74.7317 9.39081 76.2341 8.92625 78.7313 8.92625C80.2787 8.91331 81.8207 9.12038 83.3183 9.54219C83.4503 9.58275 83.5661 9.66919 83.6483 9.78813C83.7299 9.90706 83.7737 10.0519 83.7719 10.2003ZM79.3949 1.875C77.2487 1.89184 75.1163 2.24753 73.0649 2.93084C72.9761 2.95993 72.8939 3.00971 72.8249 3.07669C72.7553 3.14367 72.7007 3.22624 72.6635 3.31861C72.6269 3.41098 72.6095 3.51091 72.6119 3.61142C72.6149 3.71193 72.6377 3.81058 72.6797 3.90046L73.2989 5.27481C73.3679 5.42431 73.4825 5.54328 73.6235 5.61134C73.7645 5.6794 73.9229 5.69232 74.0711 5.64788C75.7553 5.14171 77.4959 4.88829 79.2437 4.89471C80.8043 4.89471 83.6141 5.08476 83.6141 7.44988C81.9065 6.85119 80.1215 6.55406 78.3263 6.57C74.6777 6.57 71.3999 7.58356 71.3999 10.8144C71.3999 13.6301 73.4093 14.7422 76.6289 14.7422C79.0547 14.7586 81.4505 14.1557 83.6207 12.9824V13.8201C83.6207 14.0068 83.6891 14.1858 83.8109 14.3178C83.9333 14.4498 84.0983 14.524 84.2711 14.524H86.3261C86.4989 14.524 86.6639 14.4498 86.7863 14.3178C86.9081 14.1858 86.9765 14.0068 86.9765 13.8201V8.25231C86.9261 3.54323 84.1949 1.875 79.3949 1.875Z" fill="black"/>
</g>
<defs>
<clipPath id="clip0_155_125">
<rect width="87" height="15" fill="white"/>
</clipPath>
</defs>
</svg>
