<svg width="98" height="31" viewBox="0 0 98 31" fill="none" xmlns="http://www.w3.org/2000/svg">
<g clip-path="url(#clip0_17_444)">
<path d="M34.5884 14.5239C34.5884 12.6341 34.9853 10.9643 35.779 9.51467C36.5727 8.05636 37.6822 6.91733 39.1074 6.09756C40.5413 5.26917 42.2056 4.85498 44.1002 4.85498C45.7986 4.85498 47.2666 5.17857 48.5041 5.82575C49.7417 6.4643 50.8084 7.37466 51.7046 8.55684L48.6962 11.0161C48.1073 10.2395 47.4543 9.66137 46.7374 9.28168C46.0206 8.89338 45.1671 8.69923 44.177 8.69923C43.0419 8.69923 42.0733 8.95378 41.271 9.46289C40.4688 9.96338 39.8542 10.6537 39.4276 11.5339C39.0008 12.414 38.7874 13.4107 38.7874 14.5239C38.7874 15.637 39.0008 16.6337 39.4276 17.5138C39.8542 18.3854 40.4688 19.0757 41.271 19.5848C42.0733 20.0939 43.0419 20.3484 44.177 20.3484C45.1756 20.3484 46.0376 20.1629 46.7631 19.7919C47.497 19.4122 48.1542 18.8384 48.7346 18.0704L51.7046 20.4908C50.817 21.6816 49.7501 22.5963 48.5041 23.2349C47.2666 23.8734 45.7986 24.1927 44.1002 24.1927C42.2056 24.1927 40.5413 23.7829 39.1074 22.9631C37.6822 22.1347 36.5727 20.9913 35.779 19.533C34.9853 18.0747 34.5884 16.405 34.5884 14.5239Z" fill="black"/>
<path d="M77.8146 21.3577C77.183 22.3069 76.385 23.0188 75.4206 23.4934C74.4562 23.9594 73.3766 24.1923 72.1817 24.1923C70.8247 24.1923 69.6256 23.9033 68.5844 23.3252C67.5431 22.747 66.7281 21.9445 66.1392 20.9176C65.5503 19.8821 65.2559 18.6913 65.2559 17.3452C65.2559 15.9904 65.5503 14.7953 66.1392 13.7598C66.7366 12.7157 67.5602 11.9003 68.61 11.3134C69.6597 10.7181 70.8759 10.4204 72.2585 10.4204C73.4193 10.4204 74.4776 10.6577 75.4334 11.1323C76.3893 11.6069 77.183 12.3187 77.8146 13.268L74.9341 15.4943C74.5757 14.9592 74.1789 14.5623 73.7435 14.3035C73.3083 14.036 72.7876 13.9022 72.1817 13.9022C71.2685 13.9022 70.5217 14.2129 69.9414 14.8342C69.3696 15.4555 69.0836 16.2881 69.0836 17.3322C69.0836 18.3677 69.3696 19.1918 69.9414 19.8045C70.5132 20.4172 71.26 20.7235 72.1817 20.7235C73.3851 20.7235 74.3282 20.2143 75.011 19.1961L77.8146 21.3577Z" fill="black"/>
<path d="M82.9483 5.11377V19.973C82.9483 20.3268 83.1276 20.5037 83.486 20.5037H84.0749V23.9337H82.5515C81.442 23.9337 80.5927 23.649 80.0039 23.0795C79.4236 22.5013 79.1333 21.5823 79.1333 20.3225V5.11377H82.9483Z" fill="black"/>
<path d="M97.0433 21.733C96.4716 22.5442 95.7076 23.1569 94.7517 23.5711C93.8044 23.9852 92.7247 24.1923 91.5128 24.1923C90.1302 24.1923 88.9225 23.9033 87.8899 23.3252C86.8571 22.7383 86.0549 21.9315 85.4831 20.9046C84.9198 19.8692 84.6382 18.6783 84.6382 17.3322C84.6382 15.9861 84.9198 14.7953 85.4831 13.7598C86.0464 12.7157 86.8358 11.9003 87.8514 11.3134C88.8756 10.7181 90.0619 10.4204 91.4104 10.4204C92.8869 10.4204 94.1415 10.7612 95.1741 11.4429C96.2064 12.1246 96.9664 13.0781 97.4526 14.3035C97.9397 15.5287 98.1011 16.9569 97.9397 18.5878H88.5556C88.7007 19.3644 89.0335 19.9727 89.5541 20.4128C90.0832 20.8529 90.7532 21.0729 91.564 21.0729C92.2126 21.0729 92.7717 20.9608 93.241 20.7364C93.7105 20.512 94.1116 20.2057 94.4444 19.8174L97.0433 21.733ZM91.4104 13.5009C90.6338 13.5009 90.0065 13.708 89.5285 14.1222C89.0506 14.5364 88.739 15.1232 88.5939 15.8825H94.1884C94.086 15.1319 93.7958 14.5494 93.3179 14.1352C92.8399 13.7124 92.2041 13.5009 91.4104 13.5009Z" fill="black"/>
<path d="M51.9395 10.6206L57.3043 23.8796L56.8707 24.8659C56.4101 25.8795 55.245 26.6191 54.0529 26.6191L55.8411 30.0161C57.6836 29.9339 59.1738 28.5916 60.0137 26.2904L65.7036 10.6206H61.5311L59.0383 19.387L56.1662 10.6206H51.9395Z" fill="black"/>
<path d="M26.902 13.4143C26.8999 13.6255 26.8851 13.8257 26.7674 14.1445C26.6268 14.545 26.4101 14.9116 26.1301 15.2245C25.85 15.5373 25.5125 15.7894 25.1364 15.9646C24.7604 16.141 24.3545 16.2386 23.9419 16.2506C23.5292 16.2626 23.1185 16.1908 22.7335 16.0374C22.3485 15.884 21.9972 15.6528 21.6993 15.3579C21.4015 15.0631 21.1649 14.7094 21.0016 14.3189C20.9175 14.1166 20.863 13.8865 20.8294 13.6514C20.6246 9.73217 17.4032 6.61692 13.4584 6.61692C9.51362 6.61692 6.07652 9.94437 6.07652 14.0479C6.07652 18.1514 9.381 21.4778 13.4574 21.4778C17.0251 21.4778 20.001 18.9305 20.6889 15.5442C20.9699 15.9348 21.3005 16.2875 21.6963 16.5584C21.9319 16.7188 22.1872 16.8762 22.3881 16.9569C22.8918 17.1572 23.4292 17.2518 23.9686 17.2358C24.508 17.22 25.0394 17.0924 25.5302 16.8623C25.6213 16.8194 25.7253 16.7567 25.8361 16.6809C26.1904 16.4399 26.5179 16.155 26.8 15.8321C25.9331 22.4711 20.29 27.5968 13.4574 27.5968C6.02506 27.5958 0 21.5297 0 14.0479C0 6.56612 6.02506 0.5 13.4584 0.5C20.8918 0.5 26.5734 6.2264 26.902 13.4143Z" fill="black"/>
</g>
<defs>
<clipPath id="clip0_17_444">
<rect width="98" height="30" fill="white" transform="translate(0 0.5)"/>
</clipPath>
</defs>
</svg>
