<svg xmlns="http://www.w3.org/2000/svg" height="24" width="24" viewBox="0 0 24 24"><title>Mailbox</title><g fill="#c6c8cd" class="nc-icon-wrapper"><g fill="none"><path d="M0 0h24v24H0z"></path><path stroke="#c6c8cd" stroke-linecap="round" stroke-linejoin="round" stroke-width="1.5" d="M10 18v4h4v-4"></path><path stroke="#c6c8cd" stroke-linecap="round" stroke-linejoin="round" stroke-width="1.5" d="M6 12h1"></path><path stroke="#c6c8cd" stroke-linecap="round" stroke-linejoin="round" stroke-width="1.5" d="M17.5 8h-11A3.5 3.5 0 0 0 3 11.5V17a1 1 0 0 0 1 1h16a1 1 0 0 0 1-1v-5.5A3.5 3.5 0 0 0 17.5 8z"></path><path stroke="#c6c8cd" stroke-linecap="round" stroke-linejoin="round" stroke-width="1.5" d="M14 5v7"></path><path stroke="#c6c8cd" stroke-linecap="round" stroke-linejoin="round" stroke-width="1.5" d="M14 2h5v3h-5z"></path><path stroke="#c6c8cd" stroke-linecap="round" stroke-linejoin="round" stroke-width="1.5" d="M13.999 11.625a.376.376 0 0 0 .001.75.375.375 0 1 0-.001-.75"></path><path stroke="#c6c8cd" stroke-linecap="round" stroke-linejoin="round" stroke-width="1.5" d="M6.5 8a3.5 3.5 0 0 1 3.5 3.5V18"></path></g></g></svg>