<svg width="24" height="24" viewBox="0 0 24 24" fill="none" xmlns="http://www.w3.org/2000/svg">
<path d="M10 18V22H14V18" stroke="black" stroke-linecap="round" stroke-linejoin="round"/>
<path d="M6 12H7" stroke="black" stroke-linecap="round" stroke-linejoin="round"/>
<path d="M17.5 8H6.5C5.57174 8 4.6815 8.36875 4.02513 9.02513C3.36875 9.6815 3 10.5717 3 11.5V17C3 17.2652 3.10536 17.5196 3.29289 17.7071C3.48043 17.8946 3.73478 18 4 18H20C20.2652 18 20.5196 17.8946 20.7071 17.7071C20.8946 17.5196 21 17.2652 21 17V11.5C21 10.5717 20.6313 9.6815 19.9749 9.02513C19.3185 8.36875 18.4283 8 17.5 8Z" stroke="black" stroke-linecap="round" stroke-linejoin="round"/>
<path d="M14 5V12" stroke="black" stroke-linecap="round" stroke-linejoin="round"/>
<path d="M14 2H19V5H14V2Z" stroke="black" stroke-linecap="round" stroke-linejoin="round"/>
<path d="M13.9985 11.625C13.9038 11.632 13.8152 11.6747 13.7507 11.7443C13.6861 11.814 13.6503 11.9055 13.6504 12.0005C13.6505 12.0954 13.6866 12.1869 13.7513 12.2563C13.8161 12.3258 13.9048 12.3682 13.9995 12.375C14.0487 12.3749 14.0975 12.3652 14.143 12.3463C14.1884 12.3274 14.2297 12.2997 14.2645 12.2648C14.2993 12.2299 14.3269 12.1886 14.3456 12.143C14.3644 12.0975 14.3741 12.0487 14.374 11.9995C14.3739 11.9503 14.3642 11.9015 14.3453 11.856C14.3263 11.8106 14.2987 11.7693 14.2638 11.7345C14.2289 11.6997 14.1876 11.6721 14.142 11.6534C14.0965 11.6346 14.0477 11.6249 13.9985 11.625Z" stroke="black" stroke-linecap="round" stroke-linejoin="round"/>
<path d="M6.5 8C7.42826 8 8.3185 8.36875 8.97487 9.02513C9.63125 9.6815 10 10.5717 10 11.5V18" stroke="black" stroke-linecap="round" stroke-linejoin="round"/>
</svg>
