<svg width="395" height="405" viewBox="0 0 395 405" fill="none" xmlns="http://www.w3.org/2000/svg">
<path d="M289.13 14.9424C300.47 27.3224 309.57 44.6125 319.81 58.8425C320.82 60.2425 322.93 60.5524 323.71 61.7924C325.64 64.8824 327.61 73.4325 328.26 73.9625C330.55 75.8325 335.77 71.0025 333.78 82.3425C340.04 78.0325 343.18 91.0325 345.03 92.4625C356.42 101.292 366.85 110.682 377.66 121.472C387.49 131.272 393.94 141.932 390.82 158.432C400.27 160.752 389.26 177.722 385.78 179.352C382.65 180.812 378.75 179.992 375.33 180.882C367.42 182.942 368.8 182.422 361.1 183.062C326.51 185.982 292.18 183.342 257.75 186.312C257.68 192.652 257.91 199.022 257.78 205.382C257.72 207.972 254.35 213.592 258.81 214.282C260.12 214.482 263.59 212.272 266.56 212.492C302.89 215.202 339.7 218.992 374.39 230.252C378.87 232.472 378.51 253.332 375.68 258.272C371.27 258.272 367.31 256.402 362.85 256.222C354.67 255.892 318.89 255.482 312.75 257.252C298.83 261.262 302.33 259.642 289.03 260.912C285.3 261.272 274.89 265.542 268.99 266.742C263.64 267.832 258.35 266.762 253.04 268.212C250.74 269.522 249.21 293.772 242.75 296.312C238.67 288.272 239.82 279.022 239.77 270.312C219.83 271.412 200.3 275.792 180.65 278.402C177.07 278.882 173.3 276.942 170.69 277.252C149.13 279.822 157.02 290.882 155.75 307.302C154.06 329.172 152.28 359.862 146.86 380.412C142.2 398.102 131.25 414.112 113.78 397.292C111.48 395.072 92.71 373.272 91.67 371.402C86.22 361.632 88.19 363.602 80.86 354.212C77.1 349.392 73.08 342.642 69.66 337.342C67.06 333.312 69.38 328.712 61.77 330.302L63.75 320.312C53.86 326.902 54.15 315.692 50.42 312.222C46.42 308.512 37.11 302.852 33.63 299.462C31.22 297.112 30.45 291.292 29.39 290.622C27.75 289.592 24.27 291.022 22.24 289.872C19.21 288.162 12.67 275.392 11.12 272.722C10.59 271.812 7.10999 271.762 6.10999 269.002C2.36999 258.682 8.31 248.082 0 239.662L9.73999 225.272C16.02 226.242 22.87 220.852 26.87 220.372C29.23 220.082 31.93 221.772 34.42 221.562C68.99 218.642 103.36 221.692 137.77 218.312L139.68 193.482C138.43 191.162 137.59 190.992 135.19 190.792C126.48 190.062 115.6 191.102 106.78 190.292C77.7 187.602 48.8601 183.742 21.0701 174.412C17.1601 165.622 16.5 155.412 19.85 146.352C24.26 146.352 28.2201 148.222 32.6801 148.402C40.8601 148.732 76.64 149.142 82.78 147.372C96.7 143.362 93.2 144.982 106.5 143.712C109.76 143.402 116.18 139.772 121.36 138.892C128.41 137.702 135.46 137.722 142.45 136.422C145.52 134.742 147.08 111.512 152.78 108.312C157.82 115.962 155.21 125.732 155.76 134.312C157.73 136.412 189.21 129.312 195.05 128.602C201.52 127.822 208.24 126.932 214.86 126.202C222.25 125.382 229.09 129.112 237.79 123.322L243.92 49.4524C248.75 35.4024 249.34 -3.62754 272.67 0.272458C276.37 0.892458 285.81 11.2825 289.14 14.9125L289.13 14.9424ZM295.18 54.9125C293.38 53.2725 290.05 52.9424 287.88 51.2524C283.78 48.0624 276.79 37.2325 271.59 45.6525C267.98 51.5025 266.66 74.5525 265.29 82.8525C264.85 85.5325 262.4 88.0225 261.88 91.4525C260.45 100.982 261.18 110.852 259.74 120.312C265.35 122.402 270.82 121.042 275.96 121.462C292.05 122.752 305.85 122.562 322.76 124.352C329.92 125.112 336.62 125.082 343.76 124.312C339.11 117.042 334.51 108.422 329.7 101.392C322.48 90.8425 303.22 62.2624 295.18 54.9224V54.9125ZM233.77 212.332L233.74 188.322C224.82 192.022 214.46 189.912 204.77 190.332C197.09 190.662 187.63 190.482 181.01 190.932C175.04 191.342 169.01 197.652 161.77 192.312V216.312C185.57 212.822 209.69 212.512 233.76 212.322L233.77 212.332ZM135.78 284.332C130.18 282.272 124.83 283.852 119.66 283.432C107.96 282.492 104.1 283.162 92.41 283.522C81.99 283.842 74.06 279.872 64.01 279.522C59.93 279.382 55.89 280.662 51.77 280.332C67.35 302.402 81.68 329.192 100.67 348.412C103.1 350.872 114.85 361.673 117.08 361.883C119.11 362.073 120.87 361.122 122.58 360.182C126.55 353.252 128.91 341.062 130.59 332.472C131.48 327.932 133.15 321.062 133.7 317.212C135.21 306.492 133.96 295.002 135.8 284.322L135.78 284.332Z" fill="black"/>
</svg>
